<?xml version="1.0" encoding="utf-8"?>
<!-- Generator: Adobe Illustrator 21.0.0, SVG Export Plug-In . SVG Version: 6.00 Build 0)  -->
<svg version="1.1" id="Layer_1" xmlns="http://www.w3.org/2000/svg" xmlns:xlink="http://www.w3.org/1999/xlink" x="0px" y="0px"
	 viewBox="0 0 49.4 49.5" style="enable-background:new 0 0 49.4 49.5;" xml:space="preserve">
<g>
	<path d="M30.5,0.8c-2-0.5-4-0.8-6.1-0.8c-3.1,0-6.2,0.6-9.1,1.8c-0.3,0.1-0.5,0.3-0.8,0.5C6,6.2,0,14.8,0,24.8
		c0,13.6,11.1,24.7,24.7,24.7s24.7-11.1,24.7-24.7C49.4,13.1,41.3,3.4,30.5,0.8z M32.9,4.3C34,5,32.6,6.1,32.6,6.1s-1.2-0.3-1.9-0.3
		c-0.1,0-0.1,0-0.2,0c-0.5,0.1-1,0.4-0.1,0.4h0.1c0,0,0,0,0.1,0c1,0,1.8,0.8,1.8,0.8s-0.6,0.1-1.5,0.2c-0.9,0-1.6,1-1.8,1.7
		c-0.1,0.7-1.1,1.4-1.4,1.6c-0.3,0.2-0.3,0.6,0,1s0.3,1.4,0.3,1.4l-0.3,0.2c0,0-0.3-0.4-0.7-1c-0.4-0.6-1-0.8-2.1-0.8
		c-1.9,0-3.5,0.9-3.5,2c0,0.9,0.4,2.1,1.7,2.1c1.3,0,1.5-1.2,1.5-1.2h1c0,0,0.4,1.2-0.2,2.3c0,0,1.7,0.3,1.9,1.3
		c0.2,1,1.2,1.6,2.3,1.6h0.1c0.9,0,2.5-0.8,4.1-0.8c0.3,0,0.6,0,0.9,0.1c1.9,0.4,2.2,2,4.1,3.5c1.9,1.5,3.8,2.8,3.8,4
		c0,1.3-1.1,4.2-4.5,7.3s-8.6,6.7-9.7,7.7c-0.7,0.7-0.5,1.5-0.5,1.5s-0.7,0-0.9-0.4c-0.2-0.3-0.1-0.9,0.2-1.4
		c0.6-1.1,4.7-5.7,4.7-10c0-0.8-1.6-1.3-2.1-2.4c-0.4-1.1-1.6-3-1.2-4.7c0.4-1.7,1.3-2.8,0.2-3.5c-1-0.6-2.1-0.4-2.7-1.3
		c-0.6-0.8-2.4-2.4-3.7-2.4c-1.3,0-3.5-1-3.9-2.2s-1.2-2.9-1.9-3.3C16.4,11,16.3,11,16.2,11c-0.3,0-0.2,0.4,0.2,1.1
		c0.5,0.8,1.1,2.1,1.1,2.1h-0.3c0,0-1.5-0.8-1.8-1.9c-0.2-0.8,0.1-1.4-0.2-1.8c-0.3-0.4-0.6-1.3-0.4-1.8C15,8.2,16,7.6,16.4,6.4
		c0.3-0.9-0.4-1.6-0.4-2c2.7-1.2,5.6-1.8,8.7-1.8c1.7,0,3.4,0.2,5,0.6C30.8,3.5,31.9,3.8,32.9,4.3z M24.7,46.9
		C12.5,46.9,2.5,37,2.5,24.7C2.5,16.5,7,9.3,13.7,5.4c0,0.1,0.1,0.2,0.1,0.3c-0.1,0.2-0.3,0.3-0.4,0.5c-0.3,0.3-0.7,0.7-1,1.3
		c-0.6,1.3-0.2,2.7,0.3,3.7c0,0.4,0,0.9,0.1,1.5c0.6,2.1,2.7,3.3,3.1,3.5c0.3,0.1,0.6,0.2,0.9,0.3c1.3,1.5,3.7,2.4,5.3,2.4
		c0.5,0.1,1.5,0.9,1.8,1.4c0.7,1,1.6,1.4,2.3,1.6c-0.1,0.3-0.2,0.7-0.3,1.1c-0.5,2.2,0.5,4.4,1.1,5.7c0.1,0.2,0.2,0.4,0.3,0.6
		c0.4,1.1,1.2,1.7,1.8,2.2c-0.4,2.6-2.4,5.4-3.5,6.8c-0.4,0.5-0.6,0.9-0.8,1.2c-0.8,1.4-0.8,3,0,4.1c0.9,1.3,2.5,1.4,2.9,1.4
		c0,0,0,0,0.1,0c0.7,0,1.5-0.3,1.9-0.9c0.3-0.4,0.5-0.9,0.6-1.4c0.4-0.4,1.3-1,2.2-1.7c2.1-1.6,5.1-3.8,7.3-5.9
		c3.9-3.6,5.3-7.2,5.3-9.2c0-2.4-2.1-4-4.3-5.6l-0.5-0.4c-0.5-0.4-0.9-0.9-1.3-1.3c-0.7-0.9-1.8-2.2-3.8-2.6
		c-0.5-0.1-0.9-0.1-1.4-0.1c-1.3,0-2.4,0.3-3.3,0.6c-0.3,0.1-0.7,0.2-0.9,0.2c-0.2-0.6-0.5-1.1-1-1.5l0,0c1.1-0.3,1.8-1.3,1.8-2.5
		c0-0.4-0.1-0.8-0.2-1.3c0.5-0.5,1-1.1,1.2-1.9c0.7-0.1,1.2-0.1,1.3-0.2c0.9-0.2,1.7-0.8,2-1.7c0-0.2,0.1-0.3,0.1-0.5
		c0.4-0.4,0.7-1,0.8-1.7c6.6,3.8,11.1,11,11.1,19.2C46.9,37,36.9,46.9,24.7,46.9z"/>
	<path d="M36.5,9.7c-1.4,0-2.6,0.4-2.8,0.5c-0.8,0.3-1.4,0.9-1.6,1.7c-0.2,0.8,0,1.7,0.6,2.3c0.4,0.4,1.3,1.2,3.4,1.6l2,0.4
		c0.2,0,0.3,0.1,0.5,0.1c1.1,0,2-0.7,2.4-1.7l0.2-0.7c0.3-0.9,0.1-1.8-0.5-2.5C39.6,10.2,38.1,9.7,36.5,9.7L36.5,9.7z M38.5,13.8
		c0,0-0.8-0.2-2-0.4c-1.5-0.3-2-0.8-2-0.8s0.9-0.3,2-0.3c0.8,0,1.7,0.2,2.3,0.9L38.5,13.8z"/>
	<path d="M9,20.1c-2.4,0-4.1,0.9-4.3,1c-0.7,0.4-1.1,1.1-1.2,1.8c-0.1,0.8,0.2,1.5,0.7,2.1c0.3,0.3,1.3,1.1,3.1,1.2
		C7.9,26.6,8.7,27,10,27c2.3,0,3.7-1.3,4.2-2.5c0.4-0.9,0.2-2-0.5-2.7C13.3,21.6,11.8,20.1,9,20.1z M9.9,24.6
		c-1.5,0-1.2-0.8-2.6-0.8c-1,0-1.5-0.4-1.5-0.4s1.3-0.7,3.1-0.7s2.8,1,2.8,1S11.4,24.6,9.9,24.6z"/>
</g>
</svg>
