<?xml version="1.0" encoding="utf-8"?>
<!-- Generator: Adobe Illustrator 21.0.0, SVG Export Plug-In . SVG Version: 6.00 Build 0)  -->
<svg version="1.1" id="Layer_1" xmlns="http://www.w3.org/2000/svg" xmlns:xlink="http://www.w3.org/1999/xlink" x="0px" y="0px"
	 viewBox="0 0 48.4 48.4" style="enable-background:new 0 0 48.4 48.4;" xml:space="preserve">
<g>
	<path d="M24.2,0c-2,0-4,0.3-5.9,0.7h-0.1c-3.7,1-7,2.8-9.9,5.3L8.2,6.1C3.2,10.5,0,17,0,24.2C0,34.3,6.2,43,15.1,46.6
		c0.1,0.1,0.2,0.1,0.3,0.1c2.7,1.1,5.7,1.7,8.8,1.7c13.3,0,24.2-10.8,24.2-24.2S37.5,0,24.2,0z M20.2,7.2c0,2.7-2.2,5-5,5
		c-2.6,0-4.8-2.1-4.9-4.7c2.3-1.9,5-3.4,8-4.2C19.5,4.3,20.2,5.7,20.2,7.2z M4.9,34.1c1.4-1.9,3.5-3,5.9-3c4,0,7.3,3.3,7.3,7.3
		c0,2.2-1,4.2-2.6,5.6C11,42.1,7.2,38.5,4.9,34.1z M24.2,45.9c-2.1,0-4.1-0.3-6.1-0.9c1.6-1.8,2.5-4.1,2.5-6.6
		c0-5.4-4.4-9.8-9.8-9.8c-2.7,0-5.2,1.1-7,3c-0.8-2.3-1.3-4.8-1.3-7.4c0-5.6,2.2-10.8,5.7-14.6c1,3,3.8,5.1,7.1,5.1
		c4.1,0,7.5-3.3,7.5-7.5c0-1.7-0.5-3.2-1.5-4.5c1-0.1,2-0.2,3-0.2C36.2,2.5,46,12.2,46,24.2S36.1,45.9,24.2,45.9z"/>
	<path d="M28.5,30.1c-3,0-5.4,2.4-5.4,5.4s2.4,5.4,5.4,5.4s5.4-2.4,5.4-5.4S31.5,30.1,28.5,30.1z M28.5,38.4c-1.6,0-2.9-1.3-2.9-2.9
		s1.3-2.9,2.9-2.9s2.9,1.3,2.9,2.9S30.1,38.4,28.5,38.4z"/>
	<path d="M7.5,23.6c-0.8,0-1.5,0.7-1.5,1.5s0.7,1.5,1.5,1.5S9,25.9,9,25.1C9,24.2,8.3,23.6,7.5,23.6z"/>
	<path d="M26.7,8.7c0.8,0,1.5-0.6,1.5-1.5c0-0.8-0.7-1.5-1.5-1.5s-1.5,0.7-1.5,1.5C25.2,8.1,25.9,8.7,26.7,8.7z"/>
	<path d="M30.5,13.8c0.8,0,1.5-0.7,1.5-1.5s-0.7-1.5-1.5-1.5S29,11.5,29,12.3C29,13.2,29.7,13.8,30.5,13.8z"/>
</g>
</svg>
